<?xml version="1.0" encoding="UTF-8" standalone="no"?>
<svg
   xmlns:dc="http://purl.org/dc/elements/1.1/"
   xmlns:cc="http://creativecommons.org/ns#"
   xmlns:rdf="http://www.w3.org/1999/02/22-rdf-syntax-ns#"
   xmlns:svg="http://www.w3.org/2000/svg"
   xmlns="http://www.w3.org/2000/svg"
   xmlns:sodipodi="http://sodipodi.sourceforge.net/DTD/sodipodi-0.dtd"
   xmlns:inkscape="http://www.inkscape.org/namespaces/inkscape"
   height="100"
   viewBox="0 0 100.00001 100"
   width="100.00001"
   id="svg2"
   version="1.1"
   inkscape:version="0.91 r13725"
   sodipodi:docname="laut.svg">
  <metadata
     id="metadata10">
    <rdf:RDF>
      <cc:Work
         rdf:about="">
        <dc:format>image/svg+xml</dc:format>
        <dc:type
           rdf:resource="http://purl.org/dc/dcmitype/StillImage" />
        <dc:title></dc:title>
      </cc:Work>
    </rdf:RDF>
  </metadata>
  <defs
     id="defs8" />
  <sodipodi:namedview
     pagecolor="#ffffff"
     bordercolor="#666666"
     borderopacity="1"
     objecttolerance="10"
     gridtolerance="10"
     guidetolerance="10"
     inkscape:pageopacity="0"
     inkscape:pageshadow="2"
     inkscape:window-width="1280"
     inkscape:window-height="718"
     id="namedview6"
     showgrid="false"
     inkscape:zoom="4.8"
     inkscape:cx="54.843854"
     inkscape:cy="50"
     inkscape:window-x="0"
     inkscape:window-y="0"
     inkscape:window-maximized="1"
     inkscape:current-layer="svg2"
     fit-margin-top="0"
     fit-margin-left="0"
     fit-margin-right="0"
     fit-margin-bottom="0" />
  <g
     id="g4421"
     transform="translate(-213.87083,27.55841)">
    <g
       id="g4401">
      <polyline
         id="polyline4403"
         stroke-miterlimit="10"
         points="   649,137.999 675,137.999 675,155.999 661,155.999  "
         style="fill:none;stroke:#ffffff;stroke-width:2;stroke-linecap:round;stroke-linejoin:round;stroke-miterlimit:10" />
      <polyline
         id="polyline4405"
         stroke-miterlimit="10"
         points="   653,155.999 649,155.999 649,141.999  "
         style="fill:none;stroke:#ffffff;stroke-width:2;stroke-linecap:round;stroke-linejoin:round;stroke-miterlimit:10" />
      <polyline
         id="polyline4407"
         stroke-miterlimit="10"
         points="   661,156 653,162 653,156  "
         style="fill:none;stroke:#ffffff;stroke-width:2;stroke-linecap:round;stroke-linejoin:round;stroke-miterlimit:10" />
    </g>
    <g
       id="g4409">
      <path
         id="path4411"
         d="M 29,3 3,3 C 2.448,3 2,3.448 2,4 L 2,8 C 2,8.552 2.448,9 3,9 L 25,9 25,27 7,27 7,12 C 7,11.448 6.552,11 6,11 5.448,11 5,11.448 5,12 l 0,16 c 0,0.553 0.448,1 1,1 l 20,0 c 0.553,0 1,-0.447 1,-1 l 0,-19 2,0 c 0.553,0 1,-0.448 1,-1 L 30,4 C 30,3.448 29.553,3 29,3 Z M 28,7 4,7 4,5 28,5 28,7 Z"
         inkscape:connector-curvature="0" />
      <path
         id="path4413"
         d="m 22,17 c 0.553,0 1,-0.448 1,-1 l 0,-4 c 0,-0.552 -0.447,-1 -1,-1 l -12,0 c -0.552,0 -1,0.448 -1,1 l 0,4 c 0,0.552 0.448,1 1,1 l 12,0 z m -11,-4 10,0 0,2 -10,0 0,-2 z"
         inkscape:connector-curvature="0" />
    </g>
  </g>
  <circle
     style="opacity:0.5;fill:#cccccc;fill-opacity:1;stroke:none;stroke-width:8;stroke-linejoin:miter;stroke-miterlimit:4;stroke-dasharray:none;stroke-opacity:1"
     id="path4141"
     cx="50.000004"
     cy="50"
     r="50" />
  <path
     d="m 135.04861,61.3966 q 0,-1.999899 -1.46147,-3.461365 -1.46146,-1.461473 -3.46137,-1.461473 -1.9999,0 -3.46137,1.461473 -1.46147,1.461466 -1.46147,3.461365 0,1.999911 1.46147,3.461376 1.46147,1.461467 3.46137,1.461467 1.99991,0 3.46137,-1.461467 1.46147,-1.461466 1.46147,-3.461376 z m -14.76852,-19.691351 14.76852,0 0,-9.84568 -6.07663,0 q -0.49997,0 -0.84611,0.346136 l -7.49964,7.499638 q -0.34614,0.346139 -0.34614,0.846113 l 0,1.153793 z M 169.50848,61.3966 q 0,-1.999899 -1.46147,-3.461365 -1.46146,-1.461473 -3.46137,-1.461473 -1.9999,0 -3.46137,1.461473 -1.46147,1.461466 -1.46147,3.461365 0,1.999911 1.46147,3.461376 1.46147,1.461467 3.46137,1.461467 1.99991,0 3.46137,-1.461467 1.46147,-1.461466 1.46147,-3.461376 z m 9.84567,-41.844125 0,39.382709 q 0,0.576893 -0.15383,1.019184 -0.15384,0.44228 -0.51921,0.711502 -0.36537,0.269223 -0.63458,0.442287 -0.26923,0.173071 -0.90381,0.230756 -0.63458,0.05761 -0.86534,0.07692 -0.23076,0.01927 -0.98072,0 -0.74997,-0.01927 -0.86535,-0.01927 0,4.076725 -2.88447,6.961201 -2.88447,2.884471 -6.9612,2.884471 -4.07672,0 -6.9612,-2.884478 -2.88448,-2.884468 -2.88448,-6.961202 l -14.76851,0 q 0,4.076734 -2.88447,6.961202 -2.88448,2.884478 -6.96121,2.884478 -4.07672,0 -6.9612,-2.884478 -2.88448,-2.884469 -2.88448,-6.961202 l -2.46141,0 q -0.11538,0 -0.86535,0.01927 -0.74996,0.0192 -0.98072,0 -0.23076,-0.01927 -0.86534,-0.07691 -0.63458,-0.05775 -0.9038,-0.230769 -0.26922,-0.173069 -0.63459,-0.442286 -0.36536,-0.269216 -0.5192,-0.711505 -0.15384,-0.442285 -0.15384,-1.019177 0,-0.999955 0.73073,-1.73069 0.73074,-0.730688 1.73069,-0.730688 l 0,-12.307096 q 0,-0.307678 -0.0192,-1.346089 -0.0192,-1.038411 0,-1.461467 0.0192,-0.423058 0.0961,-1.32686 0.0769,-0.903804 0.24999,-1.423009 0.17307,-0.519207 0.53843,-1.17302 0.36537,-0.653816 0.86534,-1.15379 l 7.61502,-7.615011 q 0.73073,-0.730734 1.94221,-1.23071 1.21148,-0.499975 2.24989,-0.499975 l 6.15355,0 0,-7.384257 q 0,-0.999953 0.73073,-1.730687 0.73074,-0.730733 1.73069,-0.730733 l 39.3827,0 q 0.99995,0 1.73069,0.730733 0.73074,0.730734 0.73074,1.730687 z"
     id="path4"
     inkscape:connector-curvature="0"
     style="fill:#4d4d4d" />
  <g
     id="g4281"
     transform="matrix(0.66041667,0,0,0.66041667,16.97917,17.020821)"
     style="fill:#4d4d4d;fill-opacity:1">
    <g
       transform="scale(0.71268218,0.71268218)"
       id="Livello_23"
       style="fill:#4d4d4d;fill-opacity:1">
      <path
         inkscape:connector-curvature="0"
         id="path4-2"
         d="m 105.109,48.278 -5.152,0 0,-5.098 5.152,0 0,5.098 z m -7.937,27.01 -0.022,0 0,-5.391 0.021,0 10e-4,5.391 0,0 z m -2.185,-27.01 -5.152,0 0,-5.098 5.152,0 0,5.098 z m -11.245,-0.183 -5.152,0 0,-5.099 5.152,0 0,5.099 z m -10.784,0 -5.151,0 0,-5.099 5.151,0 0,5.099 z m -10.829,0 -5.151,0 0,-5.099 5.151,0 0,5.099 z m -10.875,0 -5.151,0 0,-5.099 5.151,0 0,5.099 z m -8.238,27.207 -0.022,0 0,-5.403 0.022,0 0,5.403 z m -2.546,-27.207 -5.153,0 0,-5.099 5.153,0 0,5.099 z m 99.845,27.193 c 0,-2.977 -2.427,-5.391 -5.421,-5.391 l -19.004,0 c 2.979,0 5.396,-2.413 5.396,-5.394 0,-2.977 -2.415,-5.391 -5.396,-5.391 l -2.566,0 0,-26.77 c 2.98,0 5.396,-2.413 5.396,-5.393 0,-2.978 -2.414,-5.391 -5.396,-5.391 l -32.368,0 0,-15.946 0,-2.877 0,-1.367 C 80.956,0.612 80.321,0 79.538,0 L 78.184,0 77.303,0 63.491,0 62.262,0 60.85,0 c -0.782,0 -1.417,0.612 -1.417,1.368 l 0,2.607 10e-4,0 0,17.587 -32.426,0 c -2.979,0 -5.396,2.413 -5.396,5.391 0,2.979 2.415,5.393 5.396,5.393 l 0.058,0 0,26.771 -2.886,0 c -2.979,0 -5.396,2.414 -5.396,5.391 0,2.979 2.416,5.394 5.396,5.394 l -18.778,0 C 2.418,69.897 0,72.317 0,75.302 l 43.004,64.836 0.014,0 27.021,0 0,-0.183 27.111,0 0.012,0 43.153,-64.667 z"
         style="fill:#4d4d4d;fill-opacity:1" />
    </g>
    <g
       transform="translate(0,-40.264145)"
       id="Livello_1_1_"
       style="fill:#4d4d4d;fill-opacity:1" />
  </g>
</svg>
